<svg xmlns="http://www.w3.org/2000/svg" viewBox="0 0 3468 512" width="347" height="51">
	<defs>
		<linearGradient id="grd1" gradientUnits="userSpaceOnUse"  x1="395.564" y1="496" x2="118.436" y2="16">
			<stop offset="0" stop-color="#0063e6"  />
			<stop offset="1" stop-color="#006eff"  />
		</linearGradient>
	</defs>
	<style>
		tspan { white-space:pre }
		.shp0 { fill: url(#grd1);stroke: #006eff;stroke-linejoin:bevel;stroke-width: 32 } 
		.shp1 { fill: #ffffff } 
	</style>
	<path id="Border" class="shp0" d="M17 16L497 16L497 496L17 496L17 16Z" />
	<path id="Shape 3" class="shp1" d="M88.75 346L259.25 346L259.25 426L88.75 426L88.75 346Z" />
	<path id="Shape 2" class="shp1" d="M88.12 216L343.88 216L343.88 296L88.12 296L88.12 216Z" />
	<path id="Shape 1" class="shp1" d="M87.5 86L428.5 86L428.5 166L87.5 166L87.5 86Z" />
	<path id="FLAW.TECH  " fill="#006eff" d="M896.73 226.48L896.73 292.4L758.55 292.4L758.55 434L672.86 434L672.86 78.53L910.65 78.53L910.65 144.69L758.55 144.69L758.55 226.48L896.73 226.48ZM1031.99 78.53L1031.99 368.08L1181.16 368.08L1181.16 434L946.29 434L946.29 78.53L1031.99 78.53ZM1444.58 434L1423.83 367.59L1306.4 367.59L1285.89 434L1194.34 434L1324.71 78.53L1405.28 78.53L1536.63 434L1444.58 434ZM1364.99 178.14L1326.91 301.43L1403.32 301.43L1364.99 178.14ZM1778.81 78.53L1828.37 301.43L1869.14 78.53L1954.11 78.53L1878.67 434L1789.8 434L1742.19 231.36L1695.56 434L1606.94 434L1531.25 78.53L1616.46 78.53L1657.23 301.43L1706.06 78.53L1778.81 78.53ZM1999.76 354.17Q2019.29 354.17 2032.23 365.88Q2045.17 377.36 2045.17 395.43Q2045.17 413.49 2032.23 425.21Q2019.29 436.69 1999.76 436.69Q1979.98 436.69 1967.04 424.97Q1954.35 413.25 1954.35 395.43Q1954.35 377.6 1967.04 365.88Q1979.98 354.17 1999.76 354.17ZM2376.22 78.53L2376.22 137.86L2267.34 137.86L2267.34 434L2194.1 434L2194.1 137.86L2086.67 137.86L2086.67 78.53L2376.22 78.53ZM2631.84 222.57L2631.84 279.95L2491.21 279.95L2491.21 375.16L2656.25 375.16L2656.25 434L2417.97 434L2417.97 78.53L2655.77 78.53L2655.77 137.86L2491.21 137.86L2491.21 222.57L2631.84 222.57ZM2905.03 315.59L2978.28 315.59Q2974.13 372.96 2935.79 405.92Q2897.71 438.88 2835.21 438.88Q2766.85 438.88 2727.54 392.98Q2688.48 346.84 2688.48 266.52L2688.48 244.79Q2688.48 193.52 2706.55 154.46Q2724.61 115.4 2758.06 94.64Q2791.75 73.65 2836.19 73.65Q2897.71 73.65 2935.31 106.61Q2972.9 139.57 2978.76 199.14L2905.52 199.14Q2902.84 164.71 2886.23 149.33Q2869.88 133.71 2836.19 133.71Q2799.56 133.71 2781.25 160.07Q2763.19 186.2 2762.7 241.37L2762.7 268.23Q2762.7 325.85 2780.03 352.46Q2797.61 379.07 2835.21 379.07Q2869.14 379.07 2885.75 363.69Q2902.59 348.06 2905.03 315.59ZM3315.68 78.53L3315.68 434L3242.44 434L3242.44 281.66L3099.61 281.66L3099.61 434L3026.37 434L3026.37 78.53L3099.61 78.53L3099.61 222.57L3242.44 222.57L3242.44 78.53L3315.68 78.53Z" />
</svg>